<svg xmlns="http://www.w3.org/2000/svg" viewBox="1666 3407 75.1 75.1">
  <defs>
    <style>
      .cls-1 {
        fill: #707070;
      }

      .cls-2 {
        fill: #fff;
      }
    </style>
  </defs>
  <g id="Group_27" data-name="Group 27" transform="translate(6 2)">
    <circle id="Oval-1-Copy-6" class="cls-1" cx="37.55" cy="37.55" r="37.55" transform="translate(1660 3405)"/>
    <path id="XMLID_17_" class="cls-2" d="M33.444,0H14.191A14.207,14.207,0,0,0,0,14.191V33.444A14.207,14.207,0,0,0,14.191,47.635H33.444A14.207,14.207,0,0,0,47.635,33.444V14.191A14.207,14.207,0,0,0,33.444,0Zm9.4,33.444a9.4,9.4,0,0,1-9.4,9.4H14.191a9.4,9.4,0,0,1-9.4-9.4V14.191a9.4,9.4,0,0,1,9.4-9.4H33.444a9.4,9.4,0,0,1,9.4,9.4V33.444Z" transform="translate(1673.947 3417.947)"/>
    <path id="XMLID_81_" class="cls-2" d="M145.32,133a12.32,12.32,0,1,0,12.32,12.32A12.334,12.334,0,0,0,145.32,133Zm0,19.848a7.528,7.528,0,1,1,7.528-7.528A7.528,7.528,0,0,1,145.32,152.848Z" transform="translate(1552.445 3296.445)"/>
    <circle id="XMLID_83_" class="cls-2" cx="2.952" cy="2.952" r="2.952" transform="translate(1707.156 3426.585)"/>
  </g>
</svg>
