<svg xmlns="http://www.w3.org/2000/svg" viewBox="1537 3407 70 70">
  <defs>
    <style>
      .cls-1 {
        fill: #707070;
      }

      .cls-2 {
        fill: #fff;
        fill-rule: evenodd;
      }
    </style>
  </defs>
  <g id="Group_26" data-name="Group 26" transform="translate(6 2)">
    <circle id="Oval-1-Copy-5" class="cls-1" cx="35" cy="35" r="35" transform="translate(1531 3405)"/>
    <path id="Fill-182" class="cls-2" d="M21.365,25.967a4.185,4.185,0,0,0,4.363-3.981A4.187,4.187,0,0,0,21.365,18,4.187,4.187,0,0,0,17,21.986a4.185,4.185,0,0,0,4.365,3.981" transform="translate(1531 3405)"/>
    <path id="Fill-183" class="cls-2" d="M18,51.578h7.828V29H18Z" transform="translate(1531 3405)"/>
    <path id="Fill-184" class="cls-2" d="M36.815,39.02c0-2.589,1.225-5.121,4.154-5.121s3.649,2.532,3.649,5.059V51.289h7.793V38.454C52.412,29.537,47.141,28,43.9,28s-5.027,1.1-7.083,3.751v-3.04H29V51.289h7.815Z" transform="translate(1531 3405)"/>
  </g>
</svg>
